<!-- SmartCaptions logo (faithful full-color vector).
     Provenance: auto-trace of the product logo PNG supplied by the owner
     (marketing-assets/adaptive-icon.svg), cleaned in the engine: the tracer's
     full-canvas #000000 underlayer path removed, and every region self-stroked
     (stroke=fill, 1.2px) to seal anti-aliasing seams between posterized
     gradient bands. Icon only; wordmark is composed by templates. -->
<svg version="1.1" id="Layer_1" xmlns="http://www.w3.org/2000/svg" xmlns:xlink="http://www.w3.org/1999/xlink" x="0px" y="0px"
	 width="100%" viewBox="0 0 1024 1024" enable-background="new 0 0 1024 1024" xml:space="preserve">

<path fill="#EF9E06" stroke="#EF9E06" stroke-width="1.2" stroke-linejoin="round" 
	d="
M373.745422,550.737793 
	C357.293488,541.343079 340.819031,531.987183 324.436615,522.472717 
	C323.252136,521.784790 322.737915,519.942749 322.230957,518.086487 
	C337.720337,508.744171 352.890839,499.952698 368.416382,491.107727 
	C377.234070,486.122070 385.696777,481.189880 394.511017,476.190643 
	C404.641174,470.439819 414.419800,464.756042 424.538879,459.012817 
	C433.831543,453.725433 442.783722,448.497467 452.064026,443.224670 
	C485.830780,424.053833 519.263916,404.918091 552.721191,385.824707 
	C554.856934,384.605865 557.179810,383.714874 559.816345,382.763611 
	C561.753235,383.442413 563.398071,383.839539 564.807617,384.647125 
	C572.564087,389.090820 580.263123,393.634888 588.011353,398.513977 
	C587.997803,400.972198 588.481262,403.251831 587.807190,405.111938 
	C586.173523,409.619812 584.085449,413.973206 581.997498,418.300476 
	C581.302795,419.740234 580.257751,421.169769 579.018311,422.160431 
	C573.565735,426.518890 567.955872,430.680237 562.473450,435.002380 
	C561.479492,435.785919 560.815125,436.987427 559.562256,437.996826 
	C553.943481,439.062378 548.310364,439.175537 543.665833,441.375641 
	C531.221619,447.270416 519.124695,453.919250 507.026672,460.519592 
	C472.557465,479.325012 438.111542,498.174286 403.750397,517.176147 
	C389.915039,524.827148 377.934814,534.357483 373.745422,550.737793 
z"/>
<path fill="#074B77" stroke="#074B77" stroke-width="1.2" stroke-linejoin="round" 
	d="
M789.970215,631.916992 
	C772.207764,642.560059 754.445251,653.203064 736.310364,663.490906 
	C735.049377,661.400391 734.606812,659.035278 733.196533,658.036560 
	C726.334534,653.177063 721.284790,646.419189 713.558044,642.172424 
	C704.380615,637.128479 695.828308,631.282349 685.317871,629.214294 
	C678.373230,627.847900 671.546997,625.868652 664.592651,624.564697 
	C652.088684,622.220398 639.528137,620.177368 626.651611,617.785522 
	C623.343567,617.311707 620.374817,617.064087 617.406799,616.809387 
	C598.721619,615.206055 580.038696,613.576416 561.350403,612.010925 
	C555.227661,611.498047 548.941772,611.858032 542.986938,610.602600 
	C519.005127,605.546570 498.311890,594.010010 480.113464,577.705994 
	C474.655731,572.816406 468.790253,567.989746 460.991791,567.839905 
	C452.907196,567.684509 444.804749,568.230835 436.715851,568.597290 
	C430.352539,568.885498 423.997986,569.366943 417.867035,569.499390 
	C421.653351,567.281494 425.212158,565.326660 429.042480,563.667969 
	C430.730316,564.095520 432.162811,564.433960 433.560486,564.325073 
	C442.812134,563.604553 452.044678,562.393311 461.306396,562.119873 
	C469.626831,561.874329 477.509277,565.570129 482.887634,571.054688 
	C493.867188,582.250916 505.822693,591.836792 519.965088,598.291077 
	C530.331909,603.022156 541.134033,606.953796 553.131531,605.141541 
	C559.166077,604.229919 565.371277,604.346680 571.503967,604.210205 
	C581.097595,603.996582 590.706421,604.217773 600.288696,603.796570 
	C617.355469,603.046387 634.404968,601.909424 651.467529,601.048584 
	C654.247375,600.908264 657.152893,601.906372 659.836792,601.439148 
	C675.174744,598.769653 690.244385,599.498413 705.114319,604.171387 
	C706.371704,604.566467 707.733337,605.019531 709.004272,604.917847 
	C716.038513,604.354797 721.938354,607.064270 727.711487,610.682495 
	C730.192200,612.237305 733.223022,612.914429 736.254761,613.991455 
	C736.672852,613.994324 736.840088,613.996033 737.111084,614.320618 
	C739.811707,616.091858 742.408569,617.540161 745.343872,619.051208 
	C746.790710,619.408447 747.899048,619.703003 749.126404,620.319580 
	C749.717529,621.084473 750.124268,621.642151 750.671265,621.953247 
	C761.827209,628.298218 774.284485,628.721985 786.591003,629.920898 
	C787.771057,630.035950 788.846313,631.226013 789.970215,631.916992 
z"/>
<path fill="#1473B2" stroke="#1473B2" stroke-width="1.2" stroke-linejoin="round" 
	d="
M365.910522,656.266724 
	C350.836731,647.597290 335.738800,638.969177 320.735107,630.180115 
	C319.536285,629.477966 318.988098,627.665100 318.425659,625.834534 
	C320.929230,624.171021 323.185425,623.114014 325.353546,621.899658 
	C338.244781,614.679626 351.115662,607.423157 364.108765,600.483582 
	C372.219940,606.369507 379.549683,613.599365 388.362030,617.159546 
	C402.863312,623.018127 418.265839,626.712158 433.400604,630.914612 
	C444.605865,634.026123 456.011353,636.409241 467.287994,639.272766 
	C482.259979,643.074646 497.094666,647.476807 512.169922,650.796387 
	C528.661865,654.427856 545.411865,656.872681 561.953369,660.298340 
	C575.124023,663.025940 588.372070,665.747742 601.172241,669.783447 
	C611.848328,673.149597 622.445190,677.520508 632.106995,683.120300 
	C640.330078,687.886230 647.322693,694.865540 654.535828,701.232483 
	C656.920227,703.337219 658.295471,706.585266 660.132141,709.310486 
	C655.627380,712.106750 651.122620,714.902954 646.135010,717.462769 
	C644.413757,715.296448 643.470886,713.068665 641.881897,711.492126 
	C637.049988,706.698120 632.360718,701.615601 626.891479,697.642761 
	C618.858337,691.807739 610.718140,685.612000 601.686707,681.775452 
	C587.211121,675.626160 572.106873,670.815613 557.002686,666.334534 
	C546.225586,663.137085 535.017273,661.387024 523.993286,659.029236 
	C512.657166,656.604797 501.325928,654.153992 489.965118,651.850098 
	C479.912903,649.811523 469.881409,647.533142 459.733734,646.140625 
	C448.918304,644.656372 437.993256,643.754333 427.085663,643.232361 
	C419.372437,642.863159 411.597595,643.366638 403.871613,643.833862 
	C399.253815,644.113098 394.547241,646.083679 390.109833,645.512573 
	C381.581055,644.414978 374.875122,647.788452 368.362610,652.236328 
	C367.179535,653.044312 366.709656,654.896545 365.910522,656.266724 
z"/>
<path fill="#288ACE" stroke="#288ACE" stroke-width="1.2" stroke-linejoin="round" 
	d="
M633.139282,725.526306 
	C624.663269,730.657104 616.187317,735.787842 607.329712,740.609009 
	C600.380859,732.921021 594.611694,724.570374 587.069824,718.379150 
	C573.831726,707.511658 558.914368,699.177856 542.662903,693.165894 
	C524.016663,686.267944 504.859711,683.235840 485.161377,684.236145 
	C473.363800,684.835388 462.376251,689.133728 452.489288,695.570251 
	C449.968079,697.211670 448.676758,700.742371 446.820343,703.404968 
	C439.351257,699.127319 431.882202,694.849731 424.273926,689.970337 
	C428.047943,686.202393 431.696533,682.612610 435.933777,679.964966 
	C443.059875,675.512024 451.395172,674.645996 459.416443,672.627502 
	C472.002228,669.460388 484.495422,671.908081 496.988708,671.525330 
	C504.798004,671.286011 512.691650,673.768188 520.545959,675.038208 
	C526.600830,676.017151 532.619812,677.441711 538.713379,677.916626 
	C557.494629,679.380554 575.530334,683.209961 591.797974,693.236938 
	C600.232300,698.435669 608.601440,703.740295 617.246948,709.002808 
	C617.493958,709.008484 617.988037,709.015076 618.077271,709.304871 
	C618.776917,710.062134 619.387329,710.529602 620.311584,711.113647 
	C624.796692,715.995544 628.967957,720.760925 633.139282,725.526306 
z"/>
<path fill="#0B5382" stroke="#0B5382" stroke-width="1.2" stroke-linejoin="round" 
	d="
M626.991272,618.008484 
	C639.528137,620.177368 652.088684,622.220398 664.592651,624.564697 
	C671.546997,625.868652 678.373230,627.847900 685.317871,629.214294 
	C695.828308,631.282349 704.380615,637.128479 713.558044,642.172424 
	C721.284790,646.419189 726.334534,653.177063 733.196533,658.036560 
	C734.606812,659.035278 735.049377,661.400391 735.959717,663.492737 
	C725.571716,670.233704 715.162109,676.617737 704.369751,682.704956 
	C702.453674,679.901917 701.390503,676.874878 699.299255,674.986206 
	C692.836121,669.148987 686.194946,663.460938 679.234558,658.231934 
	C663.730164,646.584351 645.006226,642.618042 626.714844,636.775513 
	C620.334656,635.025085 614.282776,633.263306 608.126099,632.021423 
	C595.781616,629.531494 583.379761,627.325562 571.318726,624.784546 
	C575.056641,624.044739 578.461121,623.340149 581.901184,623.033386 
	C594.871460,621.876770 607.858337,620.904480 620.825745,619.718018 
	C622.915588,619.526855 624.937805,618.596924 626.991272,618.008484 
z"/>
<path fill="#055384" stroke="#055384" stroke-width="1.2" stroke-linejoin="round" 
	d="
M508.784607,285.439697 
	C523.854126,276.590179 538.833557,267.578583 554.100952,259.084778 
	C556.137634,257.951752 560.127258,258.573303 562.379395,259.850830 
	C589.465820,275.215424 616.399719,290.849182 643.363525,306.429657 
	C657.780762,314.760315 672.178955,323.123840 686.486389,331.950287 
	C681.279846,332.617920 678.247131,335.339722 677.267273,340.238922 
	C676.888489,342.132660 677.056824,344.135864 676.628296,346.023041 
	C665.214722,339.555359 654.148865,333.153809 642.890015,326.480713 
	C629.874817,318.615723 617.069336,310.993683 604.208008,303.466980 
	C602.687134,302.576996 600.860535,302.209503 599.180603,301.255096 
	C590.289612,295.496277 581.485535,289.923737 572.477356,284.703339 
	C557.074341,275.777069 562.909912,275.998474 547.524048,284.529358 
	C537.279297,290.209686 527.149353,296.097076 516.972046,301.494873 
	C516.747925,294.569427 512.623230,290.079407 508.784607,285.439697 
z"/>
<path fill="#1979B9" stroke="#1979B9" stroke-width="1.2" stroke-linejoin="round" 
	d="
M617.988037,709.015076 
	C617.988037,709.015076 617.493958,709.008484 617.176208,708.667175 
	C614.179138,705.682617 611.836548,702.528992 608.754700,700.495850 
	C600.868042,695.293152 592.972595,689.923279 584.491638,685.845032 
	C572.423950,680.041931 560.146606,674.278076 547.374573,670.443359 
	C533.465088,666.267334 518.897278,664.268494 504.599457,661.405334 
	C485.171478,657.514709 465.623291,654.361694 445.736298,655.115723 
	C438.312592,655.397156 430.965393,657.371765 423.535492,657.893372 
	C413.404877,658.604614 405.480804,664.268311 397.061646,668.832764 
	C395.933197,669.444458 395.652954,671.620850 394.979919,673.072693 
	C385.422119,667.650940 375.864288,662.229248 366.108521,656.537109 
	C366.709656,654.896545 367.179535,653.044312 368.362610,652.236328 
	C374.875122,647.788452 381.581055,644.414978 390.109833,645.512573 
	C394.547241,646.083679 399.253815,644.113098 403.871613,643.833862 
	C411.597595,643.366638 419.372437,642.863159 427.085663,643.232361 
	C437.993256,643.754333 448.918304,644.656372 459.733734,646.140625 
	C469.881409,647.533142 479.912903,649.811523 489.965118,651.850098 
	C501.325928,654.153992 512.657166,656.604797 523.993286,659.029236 
	C535.017273,661.387024 546.225586,663.137085 557.002686,666.334534 
	C572.106873,670.815613 587.211121,675.626160 601.686707,681.775452 
	C610.718140,685.612000 618.858337,691.807739 626.891479,697.642761 
	C632.360718,701.615601 637.049988,706.698120 641.881897,711.492126 
	C643.470886,713.068665 644.413757,715.296448 645.796387,717.531738 
	C641.876099,720.358215 637.811646,722.879456 633.443237,725.463501 
	C628.967957,720.760925 624.796692,715.995544 620.224121,710.822754 
	C619.211182,709.948608 618.599609,709.481873 617.988037,709.015076 
z"/>
<path fill="#EFA706" stroke="#EFA706" stroke-width="1.2" stroke-linejoin="round" 
	d="
M798.165039,622.225708 
	C798.066467,622.420715 797.967957,622.615784 797.593628,622.964600 
	C797.317688,623.118469 797.316833,623.103516 797.316833,623.103516 
	C797.100403,623.309204 796.883972,623.514893 795.941467,623.850952 
	C793.309265,623.247192 791.403137,622.513123 789.267700,621.505371 
	C783.335571,618.130188 777.632812,615.028687 771.873657,611.762512 
	C771.650574,611.391113 771.441040,611.329102 770.926758,611.198975 
	C770.444702,610.940369 770.224365,610.894775 769.797729,610.575439 
	C745.388855,596.472229 721.186462,582.642761 697.068115,568.477051 
	C700.117432,562.343140 703.082642,556.545532 706.389038,550.855591 
	C709.479431,552.392517 712.228577,553.821716 715.208008,555.478455 
	C719.927612,558.238831 724.416992,560.771667 729.122375,563.554504 
	C734.210999,566.586731 739.083557,569.369019 744.198486,572.380249 
	C750.607117,576.114685 756.773438,579.620056 763.183716,583.354492 
	C766.532776,585.503296 769.579102,587.527222 772.754761,589.322083 
	C780.362122,593.621582 783.916260,591.575378 783.958618,582.878174 
	C784.023315,569.589722 784.009583,556.300781 784.434082,542.923828 
	C786.793823,542.556274 788.743530,542.085327 790.704468,542.032104 
	C797.954956,541.835449 797.988586,541.906677 797.994751,548.948608 
	C798.006836,562.686707 797.967102,576.424988 798.050110,590.162598 
	C798.061707,592.082703 798.645996,593.999451 798.965271,595.917725 
	C799.040771,603.678162 799.116333,611.438538 798.865601,619.878540 
	C798.414490,621.113953 798.289734,621.669800 798.165039,622.225708 
z"/>
<path fill="#359BE2" stroke="#359BE2" stroke-width="1.2" stroke-linejoin="round" 
	d="
M447.039612,703.653015 
	C448.676758,700.742371 449.968079,697.211670 452.489288,695.570251 
	C462.376251,689.133728 473.363800,684.835388 485.161377,684.236145 
	C504.859711,683.235840 524.016663,686.267944 542.662903,693.165894 
	C558.914368,699.177856 573.831726,707.511658 587.069824,718.379150 
	C594.611694,724.570374 600.380859,732.921021 606.980835,740.659668 
	C600.952087,744.737305 594.890747,748.454651 588.388977,751.886169 
	C584.892822,747.494934 582.191101,743.058594 578.718750,739.342468 
	C565.317322,725.000305 549.398560,714.221741 531.682556,705.718445 
	C507.063507,693.901672 485.027222,696.325867 465.022827,713.993591 
	C459.101501,710.629395 453.180176,707.265259 447.039612,703.653015 
z"/>
<path fill="#0287BD" stroke="#0287BD" stroke-width="1.2" stroke-linejoin="round" 
	d="
M368.061371,491.161224 
	C352.890839,499.952698 337.720337,508.744171 322.252502,517.701538 
	C320.993805,516.177246 319.200806,514.490845 319.193146,512.796265 
	C319.022552,475.051788 319.080322,437.306274 318.984863,399.561279 
	C318.976166,396.120667 320.282990,393.970062 323.197113,392.349976 
	C330.167572,388.474670 337.059967,384.458954 344.544830,380.705139 
	C348.847107,385.652618 352.588470,390.394897 356.102051,395.407532 
	C350.126648,399.039062 344.311951,402.293488 338.675629,405.832062 
	C337.153107,406.787903 336.171326,408.605103 334.707397,410.374817 
	C334.308289,411.525024 333.999176,412.327271 333.998810,413.129608 
	C333.988678,435.831024 333.971191,458.532684 334.107849,481.233368 
	C334.117493,482.832214 335.341736,485.788452 335.933563,485.771332 
	C337.970947,485.712463 339.978302,484.613281 342.339264,483.984436 
	C344.822876,482.788818 346.964355,481.519135 349.462677,480.197906 
	C352.573853,478.500641 355.328156,476.854950 358.425171,475.151062 
	C359.417786,474.851013 360.067657,474.609253 360.818665,474.773743 
	C363.300323,480.507080 365.680847,485.834167 368.061371,491.161224 
z"/>
<path fill="#1F7FC0" stroke="#1F7FC0" stroke-width="1.2" stroke-linejoin="round" 
	d="
M395.191315,673.335815 
	C395.652954,671.620850 395.933197,669.444458 397.061646,668.832764 
	C405.480804,664.268311 413.404877,658.604614 423.535492,657.893372 
	C430.965393,657.371765 438.312592,655.397156 445.736298,655.115723 
	C465.623291,654.361694 485.171478,657.514709 504.599457,661.405334 
	C518.897278,664.268494 533.465088,666.267334 547.374573,670.443359 
	C560.146606,674.278076 572.423950,680.041931 584.491638,685.845032 
	C592.972595,689.923279 600.868042,695.293152 608.754700,700.495850 
	C611.836548,702.528992 614.179138,705.682617 616.929199,708.661499 
	C608.601440,703.740295 600.232300,698.435669 591.797974,693.236938 
	C575.530334,683.209961 557.494629,679.380554 538.713379,677.916626 
	C532.619812,677.441711 526.600830,676.017151 520.545959,675.038208 
	C512.691650,673.768188 504.798004,671.286011 496.988708,671.525330 
	C484.495422,671.908081 472.002228,669.460388 459.416443,672.627502 
	C451.395172,674.645996 443.059875,675.512024 435.933777,679.964966 
	C431.696533,682.612610 428.047943,686.202393 424.058411,689.707764 
	C414.455627,684.564270 404.929169,679.081604 395.191315,673.335815 
z"/>
<path fill="#065989" stroke="#065989" stroke-width="1.2" stroke-linejoin="round" 
	d="
M676.975952,346.089203 
	C677.056824,344.135864 676.888489,342.132660 677.267273,340.238922 
	C678.247131,335.339722 681.279846,332.617920 686.692566,332.217407 
	C703.636475,341.455658 720.298401,350.863403 736.907043,360.364227 
	C755.981628,371.275696 774.944763,382.384338 794.107178,393.138428 
	C798.332397,395.509583 800.322571,398.416138 799.742737,403.120026 
	C799.187378,407.624908 798.582092,412.123596 797.358521,416.804565 
	C792.833069,414.786102 788.922424,412.631683 785.067017,410.382629 
	C767.707458,400.256012 750.363464,390.102570 732.815430,379.682831 
	C726.774841,375.938995 720.950073,372.441284 715.086426,369.010193 
	C706.135071,363.772491 697.156799,358.580780 687.974243,353.138000 
	C684.164368,350.634064 680.570129,348.361633 676.975952,346.089203 
z"/>
<path fill="#105D8E" stroke="#105D8E" stroke-width="1.2" stroke-linejoin="round" 
	d="
M626.995728,636.999390 
	C645.006226,642.618042 663.730164,646.584351 679.234558,658.231934 
	C686.194946,663.460938 692.836121,669.148987 699.299255,674.986206 
	C701.390503,676.874878 702.453674,679.901917 704.022583,682.781921 
	C696.327271,687.857971 688.596375,692.560364 680.462646,696.950439 
	C678.171570,693.391113 676.928528,689.427979 674.271667,687.033936 
	C666.909729,680.400085 659.408569,673.723206 651.118042,668.371338 
	C642.254150,662.649170 632.816162,657.484375 621.865845,655.665588 
	C620.638794,654.676758 619.615479,653.800171 618.431091,653.398804 
	C610.973938,650.871338 603.480957,648.449463 596.138916,645.676147 
	C597.693176,640.833618 594.203064,640.321472 591.331055,639.057556 
	C588.785095,637.937012 586.435059,636.371521 584.455322,635.001709 
	C588.054504,635.194092 591.195068,635.430237 594.339844,635.572754 
	C605.224365,636.065796 616.110291,636.526428 626.995728,636.999390 
z"/>
<path fill="#42ABF6" stroke="#42ABF6" stroke-width="1.2" stroke-linejoin="round" 
	d="
M573.126343,761.320129 
	C570.611084,762.929016 568.119812,764.576904 565.574951,766.137573 
	C561.675964,768.528687 557.754517,768.536560 553.783813,766.207458 
	C529.363586,751.883423 504.931244,737.580139 480.290283,722.676880 
	C480.915741,720.932129 481.507080,719.201111 482.631653,718.722107 
	C490.379883,715.421875 498.196686,712.265930 506.106537,709.378845 
	C507.378662,708.914551 509.406250,709.698853 510.777161,710.459778 
	C519.564209,715.337097 529.233704,718.106079 537.802246,723.901367 
	C546.407166,729.721252 554.858032,735.471436 561.571289,743.291077 
	C566.200928,748.683655 572.599304,753.203308 573.126343,761.320129 
z"/>
<path fill="#E29405" stroke="#E29405" stroke-width="1.2" stroke-linejoin="round" 
	d="
M373.953796,550.972412 
	C377.934814,534.357483 389.915039,524.827148 403.750397,517.176147 
	C438.111542,498.174286 472.557465,479.325012 507.026672,460.519592 
	C519.124695,453.919250 531.221619,447.270416 543.665833,441.375641 
	C548.310364,439.175537 553.943481,439.062378 560.013794,437.998535 
	C566.907410,439.043793 572.984924,439.791595 578.895996,441.225586 
	C583.700867,442.391235 588.306213,444.379608 593.074890,446.337646 
	C595.103943,449.121002 597.058044,451.569824 598.594971,454.015289 
	C593.119385,453.013580 588.061035,452.015259 582.598755,451.006409 
	C580.733398,450.696320 579.205383,450.578094 577.820740,450.069397 
	C563.235168,444.710571 549.169556,446.988220 535.811157,453.728119 
	C523.938599,459.718323 512.507385,466.585815 500.901947,473.102753 
	C471.595215,489.559662 442.261719,505.969482 413.017853,522.537476 
	C399.942719,529.945129 387.692657,538.254700 384.170990,554.403442 
	C384.042694,554.991760 383.404572,555.468872 383.004028,555.997803 
	C380.056732,554.400879 377.109467,552.803955 373.953796,550.972412 
z"/>
<path fill="#136EA9" stroke="#136EA9" stroke-width="1.2" stroke-linejoin="round" 
	d="
M660.399170,709.183594 
	C658.295471,706.585266 656.920227,703.337219 654.535828,701.232483 
	C647.322693,694.865540 640.330078,687.886230 632.106995,683.120300 
	C622.445190,677.520508 611.848328,673.149597 601.172241,669.783447 
	C588.372070,665.747742 575.124023,663.025940 561.953369,660.298340 
	C545.411865,656.872681 528.661865,654.427856 512.169922,650.796387 
	C497.094666,647.476807 482.259979,643.074646 467.287994,639.272766 
	C456.011353,636.409241 444.605865,634.026123 433.400604,630.914612 
	C418.265839,626.712158 402.863312,623.018127 388.362030,617.159546 
	C379.549683,613.599365 372.219940,606.369507 364.360046,600.235229 
	C369.949127,596.655334 375.402283,593.628357 380.942596,590.965820 
	C383.050568,593.691833 384.635651,596.795959 387.169708,598.282593 
	C396.726807,603.889526 406.322510,609.573792 416.413696,614.089600 
	C428.009125,619.278625 440.068207,623.479065 452.072937,627.689697 
	C460.682098,630.709229 469.797150,632.387878 478.224976,635.803528 
	C500.907166,644.996460 524.771667,648.997620 548.670776,653.003723 
	C560.773499,655.032532 572.886536,657.000000 585.371704,659.070251 
	C597.076599,663.386108 608.553711,667.272339 619.695984,671.955444 
	C634.331055,678.106506 645.983948,688.582092 657.016052,699.679749 
	C659.214294,701.890991 660.358459,705.149902 661.988708,707.925720 
	C661.547913,708.302734 661.107056,708.679749 660.399170,709.183594 
z"/>
<path fill="#EF9E06" stroke="#EF9E06" stroke-width="1.2" stroke-linejoin="round" 
	d="
M733.013916,379.958801 
	C750.363464,390.102570 767.707458,400.256012 785.067017,410.382629 
	C788.922424,412.631683 792.833069,414.786102 797.033081,417.056152 
	C796.658875,418.436249 796.311951,420.338776 795.228882,420.961884 
	C782.127869,428.499207 768.905945,435.826141 755.747803,443.264771 
	C753.308472,444.643799 751.011597,446.274658 748.160034,447.503937 
	C747.167480,445.291534 746.252930,443.369171 746.230713,441.436493 
	C746.128296,432.529724 743.908630,424.425171 738.207458,417.398132 
	C736.016296,414.697510 734.060547,411.805847 731.921570,408.627075 
	C727.973694,398.645599 728.417725,389.216461 733.013916,379.958801 
z"/>
<path fill="#F89423" stroke="#F89423" stroke-width="1.2" stroke-linejoin="round" 
	d="
M380.855438,590.601318 
	C375.402283,593.628357 369.949127,596.655334 364.244690,599.930664 
	C351.115662,607.423157 338.244781,614.679626 325.353546,621.899658 
	C323.185425,623.114014 320.929230,624.171021 318.420959,625.450195 
	C317.301117,624.132812 315.858429,622.712769 315.742767,621.191895 
	C314.646240,606.772827 314.700745,606.750000 327.400330,599.341492 
	C347.362823,587.695984 367.343933,576.082336 387.306396,564.436829 
	C388.734222,563.603943 390.074158,562.620361 391.585571,561.333313 
	C391.716217,560.959778 391.691620,560.944092 392.051819,560.874023 
	C394.257172,559.888367 396.102325,558.972778 398.257599,557.920166 
	C400.717896,556.672119 402.868103,555.561157 405.046936,554.796021 
	C408.120819,560.432007 411.166046,565.722168 414.016785,571.256287 
	C412.828918,572.205750 411.835510,572.911255 410.508240,573.698364 
	C408.450775,574.850342 406.727234,575.920715 404.673950,577.035950 
	C402.495911,578.169434 400.647614,579.258057 398.450745,580.455566 
	C395.213226,582.282898 392.324280,584.001404 389.116852,585.798706 
	C386.150726,587.452148 383.503082,589.026733 380.855438,590.601318 
z"/>
<path fill="#3CA3ED" stroke="#3CA3ED" stroke-width="1.2" stroke-linejoin="round" 
	d="
M573.475830,761.237305 
	C572.599304,753.203308 566.200928,748.683655 561.571289,743.291077 
	C554.858032,735.471436 546.407166,729.721252 537.802246,723.901367 
	C529.233704,718.106079 519.564209,715.337097 510.777161,710.459778 
	C509.406250,709.698853 507.378662,708.914551 506.106537,709.378845 
	C498.196686,712.265930 490.379883,715.421875 482.631653,718.722107 
	C481.507080,719.201111 480.915741,720.932129 480.046997,722.431030 
	C475.152008,720.030579 470.287659,717.282837 465.223053,714.264343 
	C485.027222,696.325867 507.063507,693.901672 531.682556,705.718445 
	C549.398560,714.221741 565.317322,725.000305 578.718750,739.342468 
	C582.191101,743.058594 584.892822,747.494934 588.037354,751.959900 
	C583.359314,755.264404 578.592346,758.209412 573.475830,761.237305 
z"/>
<path fill="#15679C" stroke="#15679C" stroke-width="1.2" stroke-linejoin="round" 
	d="
M662.346191,707.958496 
	C660.358459,705.149902 659.214294,701.890991 657.016052,699.679749 
	C645.983948,688.582092 634.331055,678.106506 619.695984,671.955444 
	C608.553711,667.272339 597.076599,663.386108 585.259521,658.740479 
	C580.433105,656.522949 576.103760,654.690613 571.755615,652.904114 
	C568.515564,651.572876 565.251099,650.300842 562.466187,649.001648 
	C582.988525,648.235718 602.490967,652.123596 621.995117,655.997559 
	C632.816162,657.484375 642.254150,662.649170 651.118042,668.371338 
	C659.408569,673.723206 666.909729,680.400085 674.271667,687.033936 
	C676.928528,689.427979 678.171570,693.391113 680.111145,697.042969 
	C674.342896,700.962158 668.523315,704.476685 662.346191,707.958496 
z"/>
<path fill="#D28904" stroke="#D28904" stroke-width="1.2" stroke-linejoin="round" 
	d="
M391.691620,560.944092 
	C391.691620,560.944092 391.716217,560.959778 391.719238,560.974365 
	C388.948425,559.511230 386.174591,558.033569 383.202393,556.276855 
	C383.404572,555.468872 384.042694,554.991760 384.170990,554.403442 
	C387.692657,538.254700 399.942719,529.945129 413.017853,522.537476 
	C442.261719,505.969482 471.595215,489.559662 500.901947,473.102753 
	C512.507385,466.585815 523.938599,459.718323 535.811157,453.728119 
	C549.169556,446.988220 563.235168,444.710571 577.820740,450.069397 
	C579.205383,450.578094 580.733398,450.696320 582.705322,451.325378 
	C588.237549,455.070618 593.259460,458.486298 598.281311,461.901978 
	C598.137634,462.262451 597.993958,462.622925 597.850281,462.983368 
	C595.238403,462.322540 592.626526,461.661682 589.637329,460.974487 
	C586.635376,459.943420 583.965088,459.042969 581.393738,457.916595 
	C567.369873,451.773529 553.250122,451.316956 539.552551,458.343658 
	C525.361938,465.623260 511.460938,473.481323 497.571503,481.331024 
	C469.211334,497.358948 440.867584,513.419189 412.674438,529.737915 
	C400.765442,536.631104 390.899933,545.313538 391.691620,560.944092 
z"/>
<path fill="#EE9705" stroke="#EE9705" stroke-width="1.2" stroke-linejoin="round" 
	d="
M799.091553,595.540527 
	C798.645996,593.999451 798.061707,592.082703 798.050110,590.162598 
	C797.967102,576.424988 798.006836,562.686707 797.994751,548.948608 
	C797.988586,541.906677 797.954956,541.835449 790.704468,542.032104 
	C788.743530,542.085327 786.793823,542.556274 784.416321,542.454102 
	C783.989746,533.787842 783.923157,525.502319 784.009033,517.218506 
	C784.050842,513.180603 782.549683,510.372772 778.924255,508.326416 
	C773.168518,505.077545 767.629272,501.445099 762.175049,497.693237 
	C765.234375,493.009979 768.117126,488.608368 770.999878,484.206757 
	C778.536438,488.247559 785.995605,492.442871 793.639832,496.268555 
	C797.905334,498.403290 799.648926,501.408661 799.612061,506.167480 
	C799.381958,535.832031 799.329285,565.497925 799.091553,595.540527 
z"/>
<path fill="#0A5D92" stroke="#0A5D92" stroke-width="1.2" stroke-linejoin="round" 
	d="
M508.442383,285.567078 
	C512.623230,290.079407 516.747925,294.569427 516.825684,301.710907 
	C516.449463,302.587616 516.223450,302.851349 515.654907,303.181152 
	C510.879089,305.673401 506.399414,308.018829 502.021973,310.541626 
	C491.336151,316.700195 480.697662,322.940826 469.969025,328.788391 
	C469.233521,326.923248 468.921539,325.067108 467.838104,323.979309 
	C464.683746,320.812073 464.355408,314.450256 457.895264,314.953400 
	C469.483582,308.208069 481.073425,301.465332 492.659515,294.716125 
	C497.810333,291.715637 502.953522,288.702087 508.442383,285.567078 
z"/>
<path fill="#D28904" stroke="#D28904" stroke-width="1.2" stroke-linejoin="round" 
	d="
M737.071411,454.229828 
	C734.310974,455.977600 731.550598,457.725403 728.250244,459.668701 
	C726.139404,459.247070 724.568481,458.629913 722.739136,457.853821 
	C721.651978,457.116455 720.823181,456.537964 720.018921,455.602112 
	C720.399048,454.329498 720.573608,453.279877 721.137756,452.519226 
	C728.995972,441.923737 728.248840,434.126984 719.096619,424.506592 
	C709.999756,414.944519 698.486816,408.899811 687.680298,401.781769 
	C682.620117,398.448700 677.883362,394.624695 672.976196,390.642395 
	C672.301025,387.843109 671.649658,385.424622 671.381592,383.030945 
	C677.174683,385.049103 682.584534,387.042450 688.180969,389.311401 
	C698.311890,396.772186 708.392151,403.778259 718.159363,411.196594 
	C726.688965,417.675049 734.825806,424.932281 736.935547,436.015808 
	C738.052429,441.883179 737.093323,448.145691 737.071411,454.229828 
z"/>
<path fill="#027DB3" stroke="#027DB3" stroke-width="1.2" stroke-linejoin="round" 
	d="
M356.329834,395.137146 
	C352.588470,390.394897 348.847107,385.652618 344.894958,380.591248 
	C359.465729,371.668976 374.247314,363.065826 389.543457,354.695068 
	C393.037476,360.183319 396.016968,365.439178 398.657654,370.840210 
	C394.691101,373.094727 391.072968,375.220795 387.433838,377.310242 
	C377.070435,383.260529 366.698456,389.195953 356.329834,395.137146 
z"/>
<path fill="#EE8906" stroke="#EE8906" stroke-width="1.2" stroke-linejoin="round" 
	d="
M722.997559,458.012756 
	C724.568481,458.629913 726.139404,459.247070 728.007080,459.951477 
	C741.729919,467.568542 755.156006,475.098419 768.990112,483.042847 
	C769.828491,483.654236 770.258850,483.851044 770.689209,484.047882 
	C770.689209,484.047882 770.920410,483.978790 770.960144,484.092773 
	C768.117126,488.608368 765.234375,493.009979 761.823425,497.631073 
	C759.645691,497.081970 757.932739,496.424561 756.356628,495.526855 
	C745.554077,489.373901 734.780090,483.170563 723.753113,476.745483 
	C720.957336,475.112701 718.405396,473.717834 715.643433,472.208160 
	C717.152039,469.522827 718.489624,467.285614 719.684387,464.974579 
	C720.863953,462.692841 721.899048,460.336426 722.997559,458.012756 
z"/>
<path fill="#0F69A4" stroke="#0F69A4" stroke-width="1.2" stroke-linejoin="round" 
	d="
M398.996490,370.695007 
	C396.016968,365.439178 393.037476,360.183319 389.895264,354.573975 
	C401.518768,347.354309 413.304993,340.488129 425.601807,333.840820 
	C429.702179,338.866516 433.291962,343.673309 436.620300,348.730560 
	C423.904755,356.218994 411.450623,363.457001 398.996490,370.695007 
z"/>
<path fill="#0C639B" stroke="#0C639B" stroke-width="1.2" stroke-linejoin="round" 
	d="
M436.881775,348.480103 
	C433.291962,343.673309 429.702179,338.866516 425.946991,333.712585 
	C436.257446,327.278168 446.733276,321.190826 457.552185,315.028442 
	C464.355408,314.450256 464.683746,320.812073 467.838104,323.979309 
	C468.921539,325.067108 469.233521,326.923248 469.759644,329.052856 
	C464.594543,332.715332 459.567749,335.753296 454.163696,338.855316 
	C448.151550,342.106293 442.516663,345.293213 436.881775,348.480103 
z"/>
<path fill="#E29405" stroke="#E29405" stroke-width="1.2" stroke-linejoin="round" 
	d="
M737.421387,454.142242 
	C737.093323,448.145691 738.052429,441.883179 736.935547,436.015808 
	C734.825806,424.932281 726.688965,417.675049 718.159363,411.196594 
	C708.392151,403.778259 698.311890,396.772186 688.114624,388.948120 
	C687.576050,386.870789 687.290466,385.432343 687.370850,384.019531 
	C692.695801,386.616302 697.748047,389.024200 702.594238,391.792847 
	C712.454224,397.425903 722.202942,403.253662 731.997559,409.001221 
	C734.060547,411.805847 736.016296,414.697510 738.207458,417.398132 
	C743.908630,424.425171 746.128296,432.529724 746.230713,441.436493 
	C746.252930,443.369171 747.167480,445.291534 747.821777,447.569061 
	C744.572144,449.964569 741.171692,452.009613 737.421387,454.142242 
z"/>
<path fill="#024673" stroke="#024673" stroke-width="1.2" stroke-linejoin="round" 
	d="
M789.497009,621.778992 
	C791.403137,622.513123 793.309265,623.247192 795.550781,624.070007 
	C797.174744,628.781311 793.819702,630.189331 790.309448,631.820862 
	C788.846313,631.226013 787.771057,630.035950 786.591003,629.920898 
	C774.284485,628.721985 761.827209,628.298218 750.671265,621.953247 
	C750.124268,621.642151 749.717529,621.084473 749.491577,620.390381 
	C751.920166,620.943604 754.065552,621.873596 756.291382,622.531494 
	C767.429932,625.823669 778.610535,629.943359 789.497009,621.778992 
z"/>
<path fill="#EE9705" stroke="#EE9705" stroke-width="1.2" stroke-linejoin="round" 
	d="
M798.416626,622.048340 
	C798.289734,621.669800 798.414490,621.113953 798.721436,620.335083 
	C798.825134,620.698486 798.746643,621.284729 798.416626,622.048340 
z"/>
<path fill="#EE9705" stroke="#EE9705" stroke-width="1.2" stroke-linejoin="round" 
	d="
M770.546387,483.844238 
	C770.258850,483.851044 769.828491,483.654236 769.218506,483.302856 
	C769.493835,483.312378 769.948669,483.476501 770.546387,483.844238 
z"/>
<path fill="#EE9705" stroke="#EE9705" stroke-width="1.2" stroke-linejoin="round" 
	d="
M797.293579,623.152161 
	C797.316833,623.103516 797.317688,623.118469 797.305298,623.120483 
	C797.292908,623.122437 797.270386,623.200806 797.293579,623.152161 
z"/>
<path fill="#065989" stroke="#065989" stroke-width="1.2" stroke-linejoin="round" 
	d="
M559.415649,382.671387 
	C557.179810,383.714874 554.856934,384.605865 552.721191,385.824707 
	C519.263916,404.918091 485.830780,424.053833 451.687744,443.104065 
	C447.907379,438.125031 444.831390,433.221802 441.992004,428.103943 
	C450.183441,423.395294 458.146637,418.916016 466.091309,414.404144 
	C483.837982,404.325623 501.545288,394.177338 519.327087,384.161255 
	C531.251465,377.444550 543.263184,370.882202 555.275146,364.322937 
	C556.535583,363.634674 558.062866,363.434906 559.447510,363.458069 
	C559.424316,370.162231 559.419983,376.416809 559.415649,382.671387 
z"/>
<path fill="#EE9705" stroke="#EE9705" stroke-width="1.2" stroke-linejoin="round" 
	d="
M593.000000,446.003113 
	C588.306213,444.379608 583.700867,442.391235 578.895996,441.225586 
	C572.984924,439.791595 566.907410,439.043793 560.450195,437.997711 
	C560.815125,436.987427 561.479492,435.785919 562.473450,435.002380 
	C567.955872,430.680237 573.565735,426.518890 579.018311,422.160431 
	C580.257751,421.169769 581.302795,419.740234 581.997498,418.300476 
	C584.085449,413.973206 586.173523,409.619812 587.807190,405.111938 
	C588.481262,403.251831 587.997803,400.972198 588.313721,398.657410 
	C600.378174,405.310150 612.169739,412.188873 623.948364,419.432190 
	C620.600403,426.025635 618.315796,433.239655 613.647217,438.218048 
	C608.548706,443.654816 602.286804,449.926361 593.000000,446.003113 
z"/>
<path fill="#ED6F0D" stroke="#ED6F0D" stroke-width="1.2" stroke-linejoin="round" 
	d="
M623.961304,419.067596 
	C612.169739,412.188873 600.378174,405.310150 588.284180,398.287964 
	C580.263123,393.634888 572.564087,389.090820 564.807617,384.647125 
	C563.398071,383.839539 561.753235,383.442413 559.816284,382.763611 
	C559.419983,376.416809 559.424316,370.162231 559.775208,363.523926 
	C566.054443,366.125336 571.987122,369.110474 577.949707,372.082855 
	C577.979614,372.070099 577.950745,372.012512 578.083252,372.230530 
	C578.477051,372.665161 578.738342,372.881775 579.234985,373.333618 
	C589.618103,379.543732 599.790894,385.476593 609.906128,391.506073 
	C619.004211,396.929199 628.039124,402.458282 636.808472,408.135559 
	C634.348572,412.895905 632.182068,417.461395 629.705078,421.886902 
	C627.583435,420.853821 625.772400,419.960693 623.961304,419.067596 
z"/>
<path fill="#0F69A4" stroke="#0F69A4" stroke-width="1.2" stroke-linejoin="round" 
	d="
M424.198456,459.072266 
	C414.419800,464.756042 404.641174,470.439819 394.329010,475.878479 
	C391.098663,470.502869 388.401855,465.372406 385.928741,460.019836 
	C393.185669,455.604584 400.218903,451.411407 407.586517,447.123169 
	C410.223206,445.844910 412.525543,444.661743 414.909668,443.862976 
	C418.060455,449.189026 421.129456,454.130646 424.198456,459.072266 
z"/>
<path fill="#0A5D92" stroke="#0A5D92" stroke-width="1.2" stroke-linejoin="round" 
	d="
M424.538879,459.012817 
	C421.129456,454.130646 418.060455,449.189026 415.137604,443.631226 
	C424.107635,438.116241 432.931519,433.217407 441.755402,428.318573 
	C444.831390,433.221802 447.907379,438.125031 451.359619,443.148926 
	C442.783722,448.497467 433.831543,453.725433 424.538879,459.012817 
z"/>
<path fill="#027DB3" stroke="#027DB3" stroke-width="1.2" stroke-linejoin="round" 
	d="
M385.705048,460.241913 
	C388.401855,465.372406 391.098663,470.502869 393.977478,475.945557 
	C385.696777,481.189880 377.234070,486.122070 368.416382,491.107727 
	C365.680847,485.834167 363.300323,480.507080 361.041565,474.546021 
	C366.110229,470.987396 371.057068,468.062744 376.357056,465.071228 
	C379.708435,463.416870 382.706757,461.829376 385.705048,460.241913 
z"/>
<path fill="#023F69" stroke="#023F69" stroke-width="1.2" stroke-linejoin="round" 
	d="
M789.267700,621.505371 
	C778.610535,629.943359 767.429932,625.823669 756.291382,622.531494 
	C754.065552,621.873596 751.920166,620.943604 749.372498,620.068359 
	C747.899048,619.703003 746.790710,619.408447 745.237183,618.729858 
	C742.197083,616.896423 739.602173,615.447021 737.007324,613.997681 
	C736.840088,613.996033 736.672852,613.994324 736.148315,613.669067 
	C734.508667,612.334167 733.373474,610.965149 731.920898,610.367554 
	C718.263611,604.748535 704.741638,598.702576 690.778198,593.966064 
	C683.540039,591.510864 675.461304,590.319946 667.817566,590.533752 
	C653.138855,590.944580 638.518982,593.156555 623.838074,593.877563 
	C611.267151,594.494995 598.559204,593.159973 586.066833,594.335388 
	C569.334290,595.909729 553.329224,593.524414 537.439514,588.950745 
	C532.829224,587.623718 527.823975,586.767090 523.848206,584.317688 
	C514.399536,578.496643 505.052399,572.356079 496.420410,565.405518 
	C486.824463,557.678833 476.208618,554.906494 464.368164,556.156677 
	C457.447083,556.887451 450.624084,558.507263 443.725983,559.515137 
	C440.862396,559.933533 437.918030,559.798889 435.205627,559.644409 
	C441.623016,555.923096 447.845184,552.473145 454.395264,549.243530 
	C459.481689,549.142151 464.301270,549.193237 468.986755,548.425598 
	C480.993927,546.458740 492.960846,545.492676 504.132477,551.344727 
	C510.265686,554.557556 515.823242,558.877258 521.606934,562.747742 
	C538.009460,573.724426 556.209839,576.642639 575.646301,576.359924 
	C595.092529,576.076904 613.942688,573.052246 632.634949,568.191223 
	C633.893677,567.863831 635.286621,568.060913 636.616333,567.996460 
	C653.063354,567.199524 668.983582,570.555725 683.881836,576.784180 
	C706.712524,586.328735 728.919189,597.362915 751.424988,607.690186 
	C755.472046,609.547180 759.587524,611.418518 763.867249,612.526978 
	C765.648499,612.988342 767.942993,611.468323 770.004089,610.849243 
	C770.224365,610.894775 770.444702,610.940369 771.038696,611.298645 
	C771.573669,611.735046 771.746216,611.840332 771.930054,611.927185 
	C777.632812,615.028687 783.335571,618.130188 789.267700,621.505371 
z"/>
<path fill="#024673" stroke="#024673" stroke-width="1.2" stroke-linejoin="round" 
	d="
M435.010376,559.915771 
	C437.918030,559.798889 440.862396,559.933533 443.725983,559.515137 
	C450.624084,558.507263 457.447083,556.887451 464.368164,556.156677 
	C476.208618,554.906494 486.824463,557.678833 496.420410,565.405518 
	C505.052399,572.356079 514.399536,578.496643 523.848206,584.317688 
	C527.823975,586.767090 532.829224,587.623718 537.439514,588.950745 
	C553.329224,593.524414 569.334290,595.909729 586.066833,594.335388 
	C598.559204,593.159973 611.267151,594.494995 623.838074,593.877563 
	C638.518982,593.156555 653.138855,590.944580 667.817566,590.533752 
	C675.461304,590.319946 683.540039,591.510864 690.778198,593.966064 
	C704.741638,598.702576 718.263611,604.748535 731.920898,610.367554 
	C733.373474,610.965149 734.508667,612.334167 735.897461,613.667847 
	C733.223022,612.914429 730.192200,612.237305 727.711487,610.682495 
	C721.938354,607.064270 716.038513,604.354797 709.004272,604.917847 
	C707.733337,605.019531 706.371704,604.566467 705.114319,604.171387 
	C690.244385,599.498413 675.174744,598.769653 659.836792,601.439148 
	C657.152893,601.906372 654.247375,600.908264 651.467529,601.048584 
	C634.404968,601.909424 617.355469,603.046387 600.288696,603.796570 
	C590.706421,604.217773 581.097595,603.996582 571.503967,604.210205 
	C565.371277,604.346680 559.166077,604.229919 553.131531,605.141541 
	C541.134033,606.953796 530.331909,603.022156 519.965088,598.291077 
	C505.822693,591.836792 493.867188,582.250916 482.887634,571.054688 
	C477.509277,565.570129 469.626831,561.874329 461.306396,562.119873 
	C452.044678,562.393311 442.812134,563.604553 433.560486,564.325073 
	C432.162811,564.433960 430.730316,564.095520 429.260742,563.439331 
	C431.141846,561.915039 433.076111,560.915405 435.010376,559.915771 
z"/>
<path fill="#055384" stroke="#055384" stroke-width="1.2" stroke-linejoin="round" 
	d="
M410.842133,573.616821 
	C411.835510,572.911255 412.828918,572.205750 414.317749,571.222107 
	C415.755280,570.550171 416.697418,570.156311 417.639526,569.762512 
	C423.997986,569.366943 430.352539,568.885498 436.715851,568.597290 
	C444.804749,568.230835 452.907196,567.684509 460.991791,567.839905 
	C468.790253,567.989746 474.655731,572.816406 480.113464,577.705994 
	C498.311890,594.010010 519.005127,605.546570 542.986938,610.602600 
	C548.941772,611.858032 555.227661,611.498047 561.350403,612.010925 
	C580.038696,613.576416 598.721619,615.206055 617.406799,616.809387 
	C620.374817,617.064087 623.343567,617.311707 626.651611,617.785522 
	C624.937805,618.596924 622.915588,619.526855 620.825745,619.718018 
	C607.858337,620.904480 594.871460,621.876770 581.901184,623.033386 
	C578.461121,623.340149 575.056641,624.044739 570.849854,624.784546 
	C561.937866,624.629395 553.806396,624.345093 545.687439,623.853821 
	C539.738281,623.493774 533.508911,623.829651 527.936096,622.121033 
	C519.878052,619.650452 511.797028,616.439209 504.622162,612.071472 
	C489.023132,602.575562 473.678833,592.582397 458.855225,581.923523 
	C451.075012,576.329224 442.748383,575.323669 433.941681,575.181946 
	C428.335052,575.091736 422.714233,575.940613 417.105896,575.871338 
	C415.009033,575.845398 412.929535,574.409729 410.842133,573.616821 
z"/>
<path fill="#EF7B05" stroke="#EF7B05" stroke-width="1.2" stroke-linejoin="round" 
	d="
M417.867035,569.499390 
	C416.697418,570.156311 415.755280,570.550171 414.512207,570.978149 
	C411.166046,565.722168 408.120819,560.432007 405.321899,554.657837 
	C405.760864,554.104126 405.953491,554.034302 406.269958,553.869446 
	C406.555511,553.642212 406.708740,553.500854 407.154877,553.142822 
	C419.923218,545.938477 432.390167,538.941528 445.112549,532.172668 
	C447.715912,536.145386 449.963043,539.959229 452.463501,543.598999 
	C453.410950,544.978210 454.942474,545.956116 456.037872,547.355408 
	C455.267731,548.070312 454.667542,548.546692 454.067352,549.023132 
	C447.845184,552.473145 441.623016,555.923096 435.205627,559.644409 
	C433.076111,560.915405 431.141846,561.915039 428.989258,563.143188 
	C425.212158,565.326660 421.653351,567.281494 417.867035,569.499390 
z"/>
<path fill="#024673" stroke="#024673" stroke-width="1.2" stroke-linejoin="round" 
	d="
M737.111084,614.320618 
	C739.602173,615.447021 742.197083,616.896423 744.898682,618.667114 
	C742.408569,617.540161 739.811707,616.091858 737.111084,614.320618 
z"/>
<path fill="#1F7FC0" stroke="#1F7FC0" stroke-width="1.2" stroke-linejoin="round" 
	d="
M618.077271,709.304871 
	C618.599609,709.481873 619.211182,709.948608 619.910278,710.706238 
	C619.387329,710.529602 618.776917,710.062134 618.077271,709.304871 
z"/>
<path fill="#065989" stroke="#065989" stroke-width="1.2" stroke-linejoin="round" 
	d="
M410.508240,573.698364 
	C412.929535,574.409729 415.009033,575.845398 417.105896,575.871338 
	C422.714233,575.940613 428.335052,575.091736 433.941681,575.181946 
	C442.748383,575.323669 451.075012,576.329224 458.855225,581.923523 
	C473.678833,592.582397 489.023132,602.575562 504.622162,612.071472 
	C511.797028,616.439209 519.878052,619.650452 527.936096,622.121033 
	C533.508911,623.829651 539.738281,623.493774 545.687439,623.853821 
	C553.806396,624.345093 561.937866,624.629395 570.532776,625.002441 
	C583.379761,627.325562 595.781616,629.531494 608.126099,632.021423 
	C614.282776,633.263306 620.334656,635.025085 626.714844,636.775513 
	C616.110291,636.526428 605.224365,636.065796 594.339844,635.572754 
	C591.195068,635.430237 588.054504,635.194092 583.988831,635.000854 
	C566.993958,634.320496 550.902771,633.920837 534.861023,632.809448 
	C529.158386,632.414429 523.251282,631.053711 517.994446,628.822144 
	C495.902802,619.444275 474.787964,608.175293 455.074554,594.400208 
	C446.158295,588.169922 436.989288,582.589966 425.607330,582.391174 
	C422.951050,582.344788 420.198853,582.523743 417.665131,581.895630 
	C413.271606,580.806519 407.708344,582.474121 405.003693,576.991089 
	C406.727234,575.920715 408.450775,574.850342 410.508240,573.698364 
z"/>
<path fill="#EE7205" stroke="#EE7205" stroke-width="1.2" stroke-linejoin="round" 
	d="
M515.997498,303.115051 
	C516.223450,302.851349 516.449463,302.587616 516.821716,302.107849 
	C527.149353,296.097076 537.279297,290.209686 547.524048,284.529358 
	C562.909912,275.998474 557.074341,275.777069 572.477356,284.703339 
	C581.485535,289.923737 590.289612,295.496277 599.022888,301.594666 
	C597.442383,304.723267 596.230530,307.319702 594.562073,309.578979 
	C591.489624,313.739685 590.076355,318.106873 591.959839,323.125061 
	C593.577881,327.435791 595.312622,331.702698 596.646240,335.923584 
	C594.964600,335.192871 593.577637,334.617950 592.308411,333.848694 
	C574.122437,322.826080 555.197632,318.801819 534.799194,327.458893 
	C529.955872,329.514404 524.939331,331.161438 520.000122,332.580750 
	C519.744995,329.876953 518.742615,327.354828 519.370911,325.341614 
	C521.888672,317.274597 519.660156,310.132904 515.997498,303.115051 
z"/>
<path fill="#EE8906" stroke="#EE8906" stroke-width="1.2" stroke-linejoin="round" 
	d="
M687.004883,383.993896 
	C687.290466,385.432343 687.576050,386.870789 687.927979,388.672485 
	C682.584534,387.042450 677.174683,385.049103 671.136475,382.807068 
	C660.336792,374.702850 650.165405,366.847351 639.968262,358.601746 
	C639.295593,355.668091 638.104309,353.124969 638.102051,350.580780 
	C638.094849,342.332642 638.330933,334.042999 643.083008,326.752289 
	C654.148865,333.153809 665.214722,339.555359 676.628296,346.023041 
	C680.570129,348.361633 684.164368,350.634064 687.881409,353.538055 
	C684.476501,361.132111 682.782715,368.469604 684.176758,376.224823 
	C684.657227,378.897583 686.036316,381.408844 687.004883,383.993896 
z"/>
<path fill="#EF7B05" stroke="#EF7B05" stroke-width="1.2" stroke-linejoin="round" 
	d="
M642.890015,326.480713 
	C638.330933,334.042999 638.094849,342.332642 638.102051,350.580780 
	C638.104309,353.124969 639.295593,355.668091 639.595581,358.580383 
	C637.731689,358.349335 636.176392,357.830841 634.703979,357.136536 
	C625.459045,352.777191 616.232605,348.378723 606.716003,343.819458 
	C603.286560,341.093506 600.141174,338.541260 596.995728,335.989014 
	C595.312622,331.702698 593.577881,327.435791 591.959839,323.125061 
	C590.076355,318.106873 591.489624,313.739685 594.562073,309.578979 
	C596.230530,307.319702 597.442383,304.723267 599.017944,301.939392 
	C600.860535,302.209503 602.687134,302.576996 604.208008,303.466980 
	C617.069336,310.993683 629.874817,318.615723 642.890015,326.480713 
z"/>
<path fill="#00385F" stroke="#00385F" stroke-width="1.2" stroke-linejoin="round" 
	d="
M454.395264,549.243530 
	C454.667542,548.546692 455.267731,548.070312 456.385010,547.298279 
	C458.506897,546.120911 460.107758,545.231934 461.717194,544.358704 
	C469.448456,540.163879 477.182007,535.973267 485.219757,532.032837 
	C491.700043,531.521606 497.945770,531.119019 504.037292,529.927795 
	C521.978882,526.419128 539.985413,526.187927 558.016541,528.597595 
	C565.529907,529.601685 572.884766,531.745422 580.380005,532.943542 
	C589.039551,534.327698 598.053650,534.235168 606.420715,536.559143 
	C626.253479,542.067993 645.783752,548.662170 665.478577,554.679260 
	C666.793640,555.080994 668.463196,554.322632 670.309570,554.163879 
	C679.428833,559.087036 688.206482,563.950195 696.984070,568.813293 
	C721.186462,582.642761 745.388855,596.472229 769.797729,610.575439 
	C767.942993,611.468323 765.648499,612.988342 763.867249,612.526978 
	C759.587524,611.418518 755.472046,609.547180 751.424988,607.690186 
	C728.919189,597.362915 706.712524,586.328735 683.881836,576.784180 
	C668.983582,570.555725 653.063354,567.199524 636.616333,567.996460 
	C635.286621,568.060913 633.893677,567.863831 632.634949,568.191223 
	C613.942688,573.052246 595.092529,576.076904 575.646301,576.359924 
	C556.209839,576.642639 538.009460,573.724426 521.606934,562.747742 
	C515.823242,558.877258 510.265686,554.557556 504.132477,551.344727 
	C492.960846,545.492676 480.993927,546.458740 468.986755,548.425598 
	C464.301270,549.193237 459.481689,549.142151 454.395264,549.243530 
z"/>
<path fill="#EE7205" stroke="#EE7205" stroke-width="1.2" stroke-linejoin="round" 
	d="
M723.996948,476.983429 
	C734.780090,483.170563 745.554077,489.373901 756.356628,495.526855 
	C757.932739,496.424561 759.645691,497.081970 761.646851,497.912781 
	C767.629272,501.445099 773.168518,505.077545 778.924255,508.326416 
	C782.549683,510.372772 784.050842,513.180603 784.009033,517.218506 
	C783.923157,525.502319 783.989746,533.787842 784.011414,542.542358 
	C784.009583,556.300781 784.023315,569.589722 783.958618,582.878174 
	C783.916260,591.575378 780.362122,593.621582 772.754761,589.322083 
	C769.579102,587.527222 766.532776,585.503296 763.353394,582.957764 
	C763.520142,574.371643 763.890015,566.412598 763.971741,558.450500 
	C764.089661,546.963013 764.024963,535.473328 763.978271,523.984802 
	C763.966064,520.989685 763.455322,517.584961 759.461426,518.559875 
	C754.184448,519.847961 749.135742,522.071533 743.589355,523.928284 
	C737.792603,525.308228 732.395386,526.652893 726.819702,527.709473 
	C718.640991,522.553955 710.568542,517.800537 702.665955,512.779663 
	C697.320984,509.383728 692.215210,505.611328 687.427856,502.015198 
	C693.602600,502.120697 699.374756,502.551788 705.090576,502.160217 
	C707.550964,501.991638 710.414124,500.640930 712.169617,498.896606 
	C714.822327,496.260773 717.023254,492.996582 718.760803,489.658295 
	C720.863098,485.619110 722.282166,481.224335 723.996948,476.983429 
z"/>
<path fill="#A35604" stroke="#A35604" stroke-width="1.2" stroke-linejoin="round" 
	d="
M714.977783,555.250916 
	C712.228577,553.821716 709.479431,552.392517 706.175659,550.610413 
	C692.746948,542.831482 679.872803,535.405518 666.765381,527.737671 
	C654.070190,520.297119 641.608276,513.098511 628.924316,505.641052 
	C627.443665,504.584076 626.206543,503.749451 624.923218,502.993256 
	C609.618652,493.974487 594.307312,484.967346 578.832458,475.772308 
	C578.423462,475.355255 578.145020,475.177307 577.645874,475.031311 
	C577.459778,475.009064 577.097351,474.913971 577.388184,474.716675 
	C579.283875,474.608490 581.045105,474.302429 582.463135,474.863525 
	C586.165039,476.328339 589.648254,478.343750 593.344543,479.825653 
	C598.844604,482.030731 604.453003,483.965851 610.265564,486.242310 
	C611.723877,487.330292 612.854858,488.335663 614.151917,489.030975 
	C626.421265,495.607452 638.794373,501.994110 650.989319,508.704834 
	C666.111206,517.026184 681.187439,525.441162 696.075195,534.170715 
	C700.414612,536.715210 704.045654,536.643555 708.403442,534.064819 
	C710.869568,533.701904 712.936157,533.352173 715.036621,533.421631 
	C715.039612,540.977539 715.008667,548.114258 714.977783,555.250916 
z"/>
<path fill="#E36E05" stroke="#E36E05" stroke-width="1.2" stroke-linejoin="round" 
	d="
M743.988953,523.893005 
	C749.135742,522.071533 754.184448,519.847961 759.461426,518.559875 
	C763.455322,517.584961 763.966064,520.989685 763.978271,523.984802 
	C764.024963,535.473328 764.089661,546.963013 763.971741,558.450500 
	C763.890015,566.412598 763.520142,574.371643 763.109375,582.728760 
	C756.773438,579.620056 750.607117,576.114685 744.364868,571.980774 
	C744.513306,570.389465 744.929871,569.427429 744.933167,568.463867 
	C744.979675,554.881531 744.996033,541.298889 744.930725,527.716675 
	C744.924561,526.440674 744.317200,525.167480 743.988953,523.893005 
z"/>
<path fill="#EE9705" stroke="#EE9705" stroke-width="1.2" stroke-linejoin="round" 
	d="
M666.998718,527.979553 
	C679.872803,535.405518 692.746948,542.831482 705.834473,550.502686 
	C703.082642,556.545532 700.117432,562.343140 697.068115,568.477051 
	C688.206482,563.950195 679.428833,559.087036 670.062622,553.897461 
	C665.000244,551.257080 660.526428,548.943237 656.223694,546.359497 
	C659.929443,540.052917 663.464050,534.016235 666.998718,527.979553 
z"/>
<path fill="#CE6204" stroke="#CE6204" stroke-width="1.2" stroke-linejoin="round" 
	d="
M743.589355,523.928284 
	C744.317200,525.167480 744.924561,526.440674 744.930725,527.716675 
	C744.996033,541.298889 744.979675,554.881531 744.933167,568.463867 
	C744.929871,569.427429 744.513306,570.389465 744.122498,571.751709 
	C739.083557,569.369019 734.210999,566.586731 729.218506,563.115967 
	C729.376709,552.418091 729.751831,542.409119 729.798706,532.398682 
	C729.804016,531.264526 727.961487,530.121704 726.982910,528.736694 
	C726.989990,528.490479 726.998230,527.997559 726.998230,527.997559 
	C732.395386,526.652893 737.792603,525.308228 743.589355,523.928284 
z"/>
<path fill="#B66003" stroke="#B66003" stroke-width="1.2" stroke-linejoin="round" 
	d="
M726.975830,528.982910 
	C727.961487,530.121704 729.804016,531.264526 729.798706,532.398682 
	C729.751831,542.409119 729.376709,552.418091 729.002441,562.865967 
	C724.416992,560.771667 719.927612,558.238831 715.208008,555.478455 
	C715.008667,548.114258 715.039612,540.977539 715.188599,533.223267 
	C715.552795,532.380432 715.798950,532.155151 716.422058,531.904114 
	C720.191284,530.913208 723.583557,529.948059 726.975830,528.982910 
z"/>
<path fill="#00385F" stroke="#00385F" stroke-width="1.2" stroke-linejoin="round" 
	d="
M771.873657,611.762512 
	C771.746216,611.840332 771.573669,611.735046 771.300537,611.511597 
	C771.441040,611.329102 771.650574,611.391113 771.873657,611.762512 
z"/>
<path fill="#ED7017" stroke="#ED7017" stroke-width="1.2" stroke-linejoin="round" 
	d="
M436.620300,348.730530 
	C442.516663,345.293213 448.151550,342.106293 454.334656,339.253448 
	C455.668457,340.648743 456.835358,341.601959 457.171936,342.790344 
	C458.440369,347.269257 461.254456,352.374329 460.091553,356.216309 
	C458.536865,361.352783 454.215881,365.904480 450.350616,370.019592 
	C446.304443,374.327362 441.330841,377.753632 436.911591,381.730835 
	C436.096497,382.464447 435.991333,383.986877 435.558472,385.145203 
	C436.718628,385.571411 437.850464,386.179016 439.047943,386.365692 
	C439.985107,386.511841 441.003601,386.136383 441.913757,386.330688 
	C441.369995,387.331207 441.042511,388.225342 440.405365,388.621704 
	C429.970886,395.112579 419.526764,401.588959 409.024750,407.969788 
	C397.402283,415.031403 385.718811,421.992615 373.713257,428.907715 
	C367.910339,426.161194 362.456085,423.504547 356.804230,420.587402 
	C354.410370,419.203949 352.214081,418.080994 349.782654,416.723114 
	C347.360352,415.330658 345.173187,414.173096 342.737366,412.769470 
	C339.972931,411.691223 337.457153,410.859070 334.941345,410.026917 
	C336.171326,408.605103 337.153107,406.787903 338.675629,405.832062 
	C344.311951,402.293488 350.126648,399.039062 356.102081,395.407532 
	C366.698456,389.195953 377.070435,383.260529 387.433838,377.310242 
	C391.072968,375.220795 394.691101,373.094727 398.657654,370.840179 
	C411.450623,363.457001 423.904755,356.218994 436.620300,348.730530 
z"/>
<path fill="#A35604" stroke="#A35604" stroke-width="1.2" stroke-linejoin="round" 
	d="
M357.001801,420.847900 
	C362.456085,423.504547 367.910339,426.161194 373.901794,429.133820 
	C375.324554,430.212097 376.210114,430.974396 376.856598,432.098877 
	C376.412994,443.353394 376.208435,454.245728 376.003906,465.138092 
	C371.057068,468.062744 366.110229,470.987396 360.940430,474.139771 
	C360.067657,474.609253 359.417786,474.851013 358.260864,474.751831 
	C357.502686,472.290680 357.042023,470.171265 357.033752,468.050110 
	C356.972565,452.316254 357.001312,436.582001 357.001801,420.847900 
z"/>
<path fill="#E36E05" stroke="#E36E05" stroke-width="1.2" stroke-linejoin="round" 
	d="
M334.707397,410.374847 
	C337.457153,410.859070 339.972931,411.691223 342.516418,413.116333 
	C342.362335,415.677063 342.026093,417.644562 342.022552,419.612610 
	C341.984100,441.045166 341.997681,462.477814 341.997131,483.910400 
	C339.978302,484.613281 337.970947,485.712463 335.933563,485.771332 
	C335.341736,485.788452 334.117493,482.832214 334.107849,481.233368 
	C333.971191,458.532684 333.988678,435.831024 333.998810,413.129608 
	C333.999176,412.327271 334.308289,411.525024 334.707397,410.374847 
z"/>
<path fill="#B66003" stroke="#B66003" stroke-width="1.2" stroke-linejoin="round" 
	d="
M356.804230,420.587402 
	C357.001312,436.582001 356.972565,452.316254 357.033752,468.050110 
	C357.042023,470.171265 357.502686,472.290680 357.918182,474.810089 
	C355.328156,476.854950 352.573853,478.500641 349.440796,479.713562 
	C349.043243,460.256104 348.997864,441.231293 349.049805,422.206757 
	C349.054596,420.456299 349.680389,418.707581 350.017792,416.958038 
	C352.214081,418.080994 354.410370,419.203949 356.804230,420.587402 
z"/>
<path fill="#CE6204" stroke="#CE6204" stroke-width="1.2" stroke-linejoin="round" 
	d="
M349.782654,416.723114 
	C349.680389,418.707581 349.054596,420.456299 349.049805,422.206757 
	C348.997864,441.231293 349.043243,460.256104 349.083984,479.765137 
	C346.964355,481.519135 344.822876,482.788818 342.339264,483.984436 
	C341.997681,462.477814 341.984100,441.045166 342.022552,419.612610 
	C342.026093,417.644562 342.362335,415.677063 342.765045,413.362427 
	C345.173187,414.173096 347.360352,415.330658 349.782654,416.723114 
z"/>
<path fill="#EE9705" stroke="#EE9705" stroke-width="1.2" stroke-linejoin="round" 
	d="
M687.370850,384.019531 
	C686.036316,381.408844 684.657227,378.897583 684.176758,376.224823 
	C682.782715,368.469604 684.476501,361.132111 688.097168,353.769592 
	C697.156799,358.580780 706.135071,363.772491 715.086426,369.010193 
	C720.950073,372.441284 726.774841,375.938995 732.815430,379.682831 
	C728.417725,389.216461 727.973694,398.645599 731.921570,408.627075 
	C722.202942,403.253662 712.454224,397.425903 702.594238,391.792847 
	C697.748047,389.024200 692.695801,386.616302 687.370850,384.019531 
z"/>
<path fill="#0C639B" stroke="#0C639B" stroke-width="1.2" stroke-linejoin="round" 
	d="
M621.865845,655.665588 
	C602.490967,652.123596 582.988525,648.235718 562.037415,648.998779 
	C543.195435,645.816406 524.782715,645.294006 507.477600,638.500916 
	C492.497314,632.620544 476.996399,628.036377 462.139679,621.880005 
	C448.182434,616.096313 434.682922,609.174011 421.140259,602.434570 
	C410.447357,597.113342 399.994659,591.309387 389.435303,585.719849 
	C392.324280,584.001404 395.213226,582.282898 398.541809,580.841675 
	C400.996979,582.669983 402.803894,584.754761 405.078247,585.643677 
	C408.289246,586.898743 411.900970,587.081177 415.242889,588.058899 
	C421.434265,589.870361 427.988434,591.092163 433.626373,594.028687 
	C454.379089,604.837585 473.979828,617.784668 495.852203,626.546143 
	C509.467072,631.999939 523.138123,637.023560 537.728638,638.912415 
	C557.132690,641.424377 576.574341,643.646240 595.999817,645.992676 
	C603.480957,648.449463 610.973938,650.871338 618.431091,653.398804 
	C619.615479,653.800171 620.638794,654.676758 621.865845,655.665588 
z"/>
<path fill="#0A5D92" stroke="#0A5D92" stroke-width="1.2" stroke-linejoin="round" 
	d="
M596.138916,645.676147 
	C576.574341,643.646240 557.132690,641.424377 537.728638,638.912415 
	C523.138123,637.023560 509.467072,631.999939 495.852203,626.546143 
	C473.979828,617.784668 454.379089,604.837585 433.626373,594.028687 
	C427.988434,591.092163 421.434265,589.870361 415.242889,588.058899 
	C411.900970,587.081177 408.289246,586.898743 405.078247,585.643677 
	C402.803894,584.754761 400.996979,582.669983 398.890381,580.732849 
	C400.647614,579.258057 402.495911,578.169434 404.673950,577.035950 
	C407.708344,582.474121 413.271606,580.806519 417.665131,581.895630 
	C420.198853,582.523743 422.951050,582.344788 425.607330,582.391174 
	C436.989288,582.589966 446.158295,588.169922 455.074554,594.400208 
	C474.787964,608.175293 495.902802,619.444275 517.994446,628.822144 
	C523.251282,631.053711 529.158386,632.414429 534.861023,632.809448 
	C550.902771,633.920837 566.993958,634.320496 583.532104,635.001648 
	C586.435059,636.371521 588.785095,637.937012 591.331055,639.057556 
	C594.203064,640.321472 597.693176,640.833618 596.138916,645.676147 
z"/>
<path fill="#EE8906" stroke="#EE8906" stroke-width="1.2" stroke-linejoin="round" 
	d="
M623.948364,419.432190 
	C625.772400,419.960693 627.583435,420.853821 629.939514,422.123108 
	C645.646240,431.331421 660.807922,440.163483 676.121277,449.181702 
	C676.492798,449.603394 676.739929,449.805634 677.250305,449.984436 
	C677.486328,449.994293 677.958496,450.010803 678.156250,450.288696 
	C678.710693,450.908508 679.020996,451.324371 679.430908,451.581482 
	C688.144897,457.047241 687.988770,456.962463 683.406372,465.888458 
	C677.425659,477.538361 668.275024,483.616425 654.688843,482.848389 
	C653.519470,482.203522 652.634827,481.746155 651.801514,481.209167 
	C635.084717,470.436890 617.765320,460.836700 599.012207,454.018677 
	C597.058044,451.569824 595.103943,449.121002 593.074890,446.337646 
	C602.286804,449.926361 608.548706,443.654816 613.647217,438.218048 
	C618.315796,433.239655 620.600403,426.025635 623.948364,419.432190 
z"/>
<path fill="#DF7E03" stroke="#DF7E03" stroke-width="1.2" stroke-linejoin="round" 
	d="
M598.594971,454.015289 
	C617.765320,460.836700 635.084717,470.436890 651.801514,481.209167 
	C652.634827,481.746155 653.519470,482.203522 654.761353,483.182007 
	C656.097412,485.447662 657.052368,487.229218 657.607910,489.002625 
	C654.475586,488.509949 651.742615,488.025482 649.009644,487.540985 
	C650.002686,489.539246 651.468140,490.769989 652.961670,491.965546 
	C657.972290,495.976379 662.992981,499.974731 667.655518,503.913818 
	C657.881226,499.403198 648.475525,494.925873 639.036682,490.519806 
	C631.406372,486.957947 623.736023,483.481964 615.969727,479.648560 
	C613.247681,477.383545 610.682739,475.376007 608.022095,473.504730 
	C602.044861,469.300873 596.020081,465.164612 590.014648,461.000854 
	C592.626526,461.661682 595.238403,462.322540 597.850281,462.983368 
	C597.993958,462.622925 598.137634,462.262451 598.281311,461.901978 
	C593.259460,458.486298 588.237549,455.070618 583.109192,451.335938 
	C588.061035,452.015259 593.119385,453.013580 598.594971,454.015289 
z"/>
<path fill="#0F69A4" stroke="#0F69A4" stroke-width="1.2" stroke-linejoin="round" 
	d="
M389.116821,585.798706 
	C399.994659,591.309387 410.447357,597.113342 421.140259,602.434570 
	C434.682922,609.174011 448.182434,616.096313 462.139679,621.880005 
	C476.996399,628.036377 492.497314,632.620544 507.477600,638.500916 
	C524.782715,645.294006 543.195435,645.816406 561.568787,648.999634 
	C565.251099,650.300842 568.515564,651.572876 571.755615,652.904114 
	C576.103760,654.690613 580.433105,656.522949 584.882690,658.665405 
	C572.886536,657.000000 560.773499,655.032532 548.670776,653.003723 
	C524.771667,648.997620 500.907166,644.996460 478.224976,635.803528 
	C469.797150,632.387878 460.682098,630.709229 452.072937,627.689697 
	C440.068207,623.479065 428.009125,619.278625 416.413696,614.089600 
	C406.322510,609.573792 396.726807,603.889526 387.169708,598.282593 
	C384.635651,596.795959 383.050568,593.691833 380.942596,590.965820 
	C383.503082,589.026733 386.150726,587.452148 389.116821,585.798706 
z"/>
<path fill="#B67704" stroke="#B67704" stroke-width="1.2" stroke-linejoin="round" 
	d="
M406.146088,553.964539 
	C405.953491,554.034302 405.760864,554.104126 405.293274,554.312012 
	C402.868103,555.561157 400.717896,556.672119 398.272217,557.482849 
	C397.468475,551.046875 399.613068,545.699036 404.437256,542.235779 
	C413.980316,535.384949 423.675385,528.659729 433.801697,522.725647 
	C453.589142,511.130096 473.695679,500.077393 493.708832,488.869049 
	C509.955719,479.769867 526.083618,470.430084 542.637634,461.923553 
	C548.061646,459.136292 554.918457,456.726654 560.657593,457.514282 
	C569.844238,458.775024 578.909851,462.225494 587.537537,465.899200 
	C596.982788,469.921143 605.872864,475.247192 615.010010,480.379333 
	C615.029602,481.502960 615.044067,482.252106 614.680786,482.978149 
	C610.198425,481.305664 606.093933,479.656250 601.638794,477.936188 
	C594.938354,474.606781 588.500366,471.507660 582.257080,468.056427 
	C568.755859,460.593170 555.197632,459.586304 541.475830,467.275909 
	C529.587341,473.938110 517.762268,480.713562 505.896759,487.416870 
	C484.334564,499.598145 462.748871,511.737823 441.202942,523.947754 
	C433.260437,528.448792 424.983887,532.525452 417.648773,537.877075 
	C412.484650,541.644836 405.501984,544.966248 406.160706,553.550720 
	C406.160095,553.688782 406.146088,553.964539 406.146088,553.964539 
z"/>
<path fill="#C77E03" stroke="#C77E03" stroke-width="1.2" stroke-linejoin="round" 
	d="
M615.004883,480.004883 
	C605.872864,475.247192 596.982788,469.921143 587.537537,465.899200 
	C578.909851,462.225494 569.844238,458.775024 560.657593,457.514282 
	C554.918457,456.726654 548.061646,459.136292 542.637634,461.923553 
	C526.083618,470.430084 509.955719,479.769867 493.708832,488.869049 
	C473.695679,500.077393 453.589142,511.130096 433.801697,522.725647 
	C423.675385,528.659729 413.980316,535.384949 404.437256,542.235779 
	C399.613068,545.699036 397.468475,551.046875 397.962097,557.619873 
	C396.102325,558.972778 394.257172,559.888367 392.051819,560.874023 
	C390.899933,545.313538 400.765442,536.631104 412.674438,529.737915 
	C440.867584,513.419189 469.211334,497.358948 497.571503,481.331024 
	C511.460938,473.481323 525.361938,465.623260 539.552551,458.343658 
	C553.250122,451.316956 567.369873,451.773529 581.393738,457.916595 
	C583.965088,459.042969 586.635376,459.943420 589.637329,460.974487 
	C596.020081,465.164612 602.044861,469.300873 608.022095,473.504730 
	C610.682739,475.376007 613.247681,477.383545 615.699707,479.661438 
	C615.363953,479.997406 615.184387,480.001129 615.004883,480.004883 
z"/>
<path fill="#ED6F0D" stroke="#ED6F0D" stroke-width="1.2" stroke-linejoin="round" 
	d="
M441.985962,385.992676 
	C441.003601,386.136383 439.985107,386.511841 439.047943,386.365692 
	C437.850464,386.179016 436.718628,385.571411 435.558472,385.145203 
	C435.991333,383.986877 436.096497,382.464447 436.911591,381.730835 
	C441.330841,377.753632 446.304443,374.327362 450.350616,370.019592 
	C454.215881,365.904480 458.536865,361.352783 460.091553,356.216309 
	C461.254456,352.374329 458.440369,347.269257 457.171936,342.790344 
	C456.835358,341.601959 455.668457,340.648743 454.711884,339.189392 
	C459.567749,335.753296 464.594543,332.715332 469.830719,329.412903 
	C480.697662,322.940826 491.336151,316.700195 502.021973,310.541626 
	C506.399414,308.018829 510.879089,305.673401 515.654907,303.181152 
	C519.660156,310.132904 521.888672,317.274597 519.370911,325.341614 
	C518.742615,327.354828 519.744995,329.876953 519.895752,332.901428 
	C517.057617,335.957275 514.415161,338.399963 511.563934,340.568085 
	C507.130402,343.939362 507.085297,344.092743 511.922302,347.333557 
	C509.016571,349.878326 506.428680,352.524078 503.323059,354.224030 
	C485.119324,364.188141 466.810669,373.961456 448.487854,383.705933 
	C446.482361,384.772461 444.160889,385.244751 441.985962,385.992676 
z"/>
<path fill="#EF7B05" stroke="#EF7B05" stroke-width="1.2" stroke-linejoin="round" 
	d="
M658.007324,489.010803 
	C657.052368,487.229218 656.097412,485.447662 655.070007,483.332428 
	C668.275024,483.616425 677.425659,477.538361 683.406372,465.888458 
	C687.988770,456.962463 688.144897,457.047241 679.430908,451.581482 
	C679.020996,451.324371 678.710693,450.908508 678.057373,450.188843 
	C677.480774,449.681885 677.231934,449.736389 677.014282,449.974609 
	C676.739929,449.805634 676.492798,449.603394 676.132202,448.780365 
	C676.268616,442.642212 679.136169,438.491272 683.436157,435.125427 
	C691.137390,439.248413 698.546204,443.202301 706.152588,447.423706 
	C710.898315,450.447327 715.446411,453.203400 719.994446,455.959473 
	C720.823181,456.537964 721.651978,457.116455 722.739136,457.853851 
	C721.899048,460.336426 720.863953,462.692841 719.684387,464.974579 
	C718.489624,467.285614 717.152039,469.522827 715.643433,472.208160 
	C718.405396,473.717834 720.957336,475.112701 723.753113,476.745483 
	C722.282166,481.224335 720.863098,485.619110 718.760803,489.658295 
	C717.023254,492.996582 714.822327,496.260773 712.169617,498.896606 
	C710.414124,500.640930 707.550964,501.991638 705.090576,502.160217 
	C699.374756,502.551788 693.602600,502.120697 687.064697,501.943298 
	C676.853149,497.579285 667.430237,493.295044 658.007324,489.010803 
z"/>
<path fill="#C77E03" stroke="#C77E03" stroke-width="1.2" stroke-linejoin="round" 
	d="
M720.018921,455.602112 
	C715.446411,453.203400 710.898315,450.447327 706.272888,447.085327 
	C706.506042,446.097595 706.740234,445.584686 707.138184,445.353424 
	C715.659546,440.400879 716.609680,434.659851 709.279663,427.944489 
	C703.930298,423.043671 698.061707,418.609222 692.001648,414.607422 
	C682.178101,408.120392 672.007629,402.158691 661.906128,395.643372 
	C660.732300,394.115723 659.670776,392.885742 658.533875,391.729919 
	C653.693420,386.808929 648.830627,381.909912 644.330811,377.070129 
	C647.340759,378.459259 649.988281,379.796600 652.652466,381.099884 
	C659.431030,384.415802 666.216980,387.716431 673.000000,391.023193 
	C677.883362,394.624695 682.620117,398.448700 687.680298,401.781769 
	C698.486816,408.899811 709.999756,414.944519 719.096619,424.506592 
	C728.248840,434.126984 728.995972,441.923737 721.137756,452.519226 
	C720.573608,453.279877 720.399048,454.329498 720.018921,455.602112 
z"/>
<path fill="#DF7E03" stroke="#DF7E03" stroke-width="1.2" stroke-linejoin="round" 
	d="
M672.976196,390.642395 
	C666.216980,387.716431 659.431030,384.415802 652.652466,381.099884 
	C649.988281,379.796600 647.340759,378.459259 644.072754,376.856659 
	C632.632629,369.051544 621.805420,361.527222 610.914368,353.651794 
	C609.567078,350.198242 608.283508,347.095703 607.000000,343.993195 
	C616.232605,348.378723 625.459045,352.777191 634.703979,357.136536 
	C636.176392,357.830841 637.731689,358.349335 639.621338,358.970459 
	C650.165405,366.847351 660.336792,374.702850 670.753174,382.782227 
	C671.649658,385.424622 672.301025,387.843109 672.976196,390.642395 
z"/>
<path fill="#B0530E" stroke="#B0530E" stroke-width="1.2" stroke-linejoin="round" 
	d="
M441.992004,428.103943 
	C432.931519,433.217407 424.107635,438.116241 415.055817,443.246826 
	C412.525543,444.661743 410.223206,445.844910 407.234314,447.005188 
	C398.299072,442.415466 390.050415,437.848694 382.096893,433.058411 
	C383.868195,431.758484 385.258026,430.531494 386.833466,429.628235 
	C409.786224,416.467560 432.610291,403.070190 455.805756,390.350586 
	C466.105164,384.702789 477.096924,380.283112 487.911011,375.622894 
	C493.398804,373.257904 499.380066,372.012390 504.804443,369.531067 
	C516.450684,364.203644 527.793274,358.213379 539.430359,352.864655 
	C546.841858,349.458099 554.496643,346.332489 563.261230,349.208496 
	C568.628296,352.692139 573.993164,355.613586 578.761841,359.305237 
	C584.169495,363.491547 583.929260,365.829376 578.869568,370.395386 
	C578.413147,370.807220 578.229919,371.521667 577.919800,372.095581 
	C571.987122,369.110474 566.054443,366.125336 559.794067,363.074341 
	C558.062866,363.434906 556.535583,363.634674 555.275146,364.322937 
	C543.263184,370.882202 531.251465,377.444550 519.327087,384.161255 
	C501.545288,394.177338 483.837982,404.325623 466.091309,414.404144 
	C458.146637,418.916016 450.183441,423.395294 441.992004,428.103943 
z"/>
<path fill="#B66003" stroke="#B66003" stroke-width="1.2" stroke-linejoin="round" 
	d="
M577.949707,372.082825 
	C578.229919,371.521667 578.413147,370.807220 578.869568,370.395386 
	C583.929260,365.829376 584.169495,363.491547 578.761841,359.305237 
	C573.993164,355.613586 568.628296,352.692139 563.567627,348.995300 
	C565.379883,348.621307 567.397766,348.145752 568.884033,348.828094 
	C581.803223,354.759460 594.870239,360.440186 607.416016,367.095123 
	C622.175720,374.924530 636.458923,383.652374 651.034241,392.326569 
	C657.948792,399.028778 664.874268,405.296631 671.541138,411.828461 
	C673.274170,413.526398 674.199341,416.048859 675.495605,418.192627 
	C672.919373,418.688477 670.359497,419.391968 667.760315,419.597076 
	C666.351318,419.708313 664.886047,418.746307 663.426758,418.677246 
	C661.897766,418.604919 660.345520,419.022095 658.443848,419.174561 
	C656.449585,418.346771 654.776184,417.641205 653.187378,416.779633 
	C647.809387,413.863098 642.461365,410.891296 637.101868,407.940643 
	C628.039124,402.458282 619.004211,396.929199 609.906128,391.506073 
	C599.790894,385.476593 589.618103,379.543732 579.088989,373.125183 
	C578.455322,372.458557 578.203003,372.235535 577.950745,372.012512 
	C577.950745,372.012512 577.979614,372.070099 577.949707,372.082825 
z"/>
<path fill="#EE7205" stroke="#EE7205" stroke-width="1.2" stroke-linejoin="round" 
	d="
M636.808472,408.135559 
	C642.461365,410.891296 647.809387,413.863098 653.187378,416.779633 
	C654.776184,417.641205 656.449585,418.346771 658.604248,419.465271 
	C660.308472,420.654846 661.449219,421.572968 662.684021,422.339569 
	C669.491272,426.565552 676.321411,430.754608 683.143738,434.956329 
	C679.136169,438.491272 676.268616,442.642212 675.980591,448.594238 
	C660.807922,440.163483 645.646240,431.331421 630.250000,422.263123 
	C632.182068,417.461395 634.348572,412.895905 636.808472,408.135559 
z"/>
<path fill="#B0530E" stroke="#B0530E" stroke-width="1.2" stroke-linejoin="round" 
	d="
M578.083252,372.230530 
	C578.203003,372.235535 578.455322,372.458557 578.853577,372.889984 
	C578.738342,372.881775 578.477051,372.665161 578.083252,372.230530 
z"/>
<path fill="#833D02" stroke="#833D02" stroke-width="1.2" stroke-linejoin="round" 
	d="
M381.801758,433.281891 
	C390.050415,437.848694 398.299072,442.415466 406.899963,447.100250 
	C400.218903,451.411407 393.185669,455.604584 385.928741,460.019836 
	C382.706757,461.829376 379.708435,463.416870 376.357025,465.071228 
	C376.208435,454.245728 376.412994,443.353394 377.200623,432.190277 
	C379.123077,432.373657 380.462402,432.827759 381.801758,433.281891 
z"/>
<path fill="#EF7507" stroke="#EF7507" stroke-width="1.2" stroke-linejoin="round" 
	d="
M577.097351,474.913971 
	C577.097351,474.913971 577.459778,475.009064 577.812805,475.217133 
	C578.407043,475.658966 578.684326,475.836304 578.997681,475.957184 
	C594.307312,484.967346 609.618652,493.974487 624.923218,502.993256 
	C626.206543,503.749451 627.443665,504.584076 628.592712,505.775208 
	C627.184021,508.387177 626.058167,510.733154 624.546936,512.796875 
	C621.949646,516.343872 619.111938,519.714844 616.192200,523.384033 
	C613.259460,521.939270 610.548706,520.201416 607.753479,518.612183 
	C592.557983,509.973083 577.302063,501.439087 562.162598,492.703186 
	C558.756714,490.737885 555.947571,490.618500 552.449890,492.627594 
	C534.413452,502.987915 516.222107,513.078247 498.150055,523.377319 
	C493.614807,525.961914 489.320007,528.968445 484.914703,531.781128 
	C477.182007,535.973267 469.448456,540.163879 461.717194,544.358704 
	C460.107758,545.231934 458.506897,546.120911 456.554932,547.059753 
	C454.942474,545.956116 453.410950,544.978210 452.463501,543.598999 
	C449.963043,539.959229 447.715912,536.145386 445.335510,531.909912 
	C448.024597,529.832092 450.743622,528.240723 453.468048,526.658752 
	C487.390594,506.961456 521.277954,487.202606 555.322205,467.717865 
	C557.474121,466.486206 561.201477,466.523560 563.581604,467.487427 
	C568.313354,469.403564 572.616882,472.377258 577.097351,474.913971 
z"/>
<path fill="#A76C05" stroke="#A76C05" stroke-width="1.2" stroke-linejoin="round" 
	d="
M577.388184,474.716675 
	C572.616882,472.377258 568.313354,469.403564 563.581604,467.487427 
	C561.201477,466.523560 557.474121,466.486206 555.322205,467.717865 
	C521.277954,487.202606 487.390594,506.961456 453.468048,526.658752 
	C450.743622,528.240723 448.024597,529.832092 445.080078,531.681763 
	C432.390167,538.941528 419.923218,545.938477 406.980957,553.140137 
	C406.505676,553.344849 406.161316,553.412659 406.161316,553.412659 
	C405.501984,544.966248 412.484650,541.644836 417.648773,537.877075 
	C424.983887,532.525452 433.260437,528.448792 441.202942,523.947754 
	C462.748871,511.737823 484.334564,499.598145 505.896759,487.416870 
	C517.762268,480.713562 529.587341,473.938110 541.475830,467.275909 
	C555.197632,459.586304 568.755859,460.593170 582.257080,468.056427 
	C588.500366,471.507660 594.938354,474.606781 601.720093,478.267731 
	C604.773132,481.118591 607.394226,483.567200 610.015259,486.015839 
	C604.453003,483.965851 598.844604,482.030731 593.344543,479.825653 
	C589.648254,478.343750 586.165039,476.328339 582.463135,474.863525 
	C581.045105,474.302429 579.283875,474.608490 577.388184,474.716675 
z"/>
<path fill="#F89423" stroke="#F89423" stroke-width="1.2" stroke-linejoin="round" 
	d="
M406.160706,553.550720 
	C406.161316,553.412659 406.505676,553.344849 406.679596,553.347534 
	C406.708740,553.500854 406.555511,553.642212 406.269958,553.869446 
	C406.146088,553.964539 406.160095,553.688782 406.160706,553.550720 
z"/>
<path fill="#E36E05" stroke="#E36E05" stroke-width="1.2" stroke-linejoin="round" 
	d="
M606.716003,343.819458 
	C608.283508,347.095703 609.567078,350.198242 610.567749,353.585938 
	C602.548767,349.384247 594.818298,344.887390 587.075134,340.412628 
	C573.763550,332.719910 559.646118,329.078339 544.635864,334.026367 
	C536.021423,336.866119 527.902344,341.191956 519.503418,344.713074 
	C517.104919,345.718567 514.507263,346.249176 512.000977,346.997559 
	C507.085297,344.092743 507.130402,343.939362 511.563934,340.568085 
	C514.415161,338.399963 517.057617,335.957275 519.898071,333.317017 
	C524.939331,331.161438 529.955872,329.514404 534.799194,327.458893 
	C555.197632,318.801819 574.122437,322.826080 592.308411,333.848694 
	C593.577637,334.617950 594.964600,335.192871 596.646240,335.923584 
	C600.141174,338.541260 603.286560,341.093506 606.716003,343.819458 
z"/>
<path fill="#012F52" stroke="#012F52" stroke-width="1.2" stroke-linejoin="round" 
	d="
M485.219727,532.032837 
	C489.320007,528.968445 493.614807,525.961914 498.150055,523.377319 
	C516.222107,513.078247 534.413452,502.987915 552.449890,492.627594 
	C555.947571,490.618500 558.756714,490.737885 562.162598,492.703186 
	C577.302063,501.439087 592.557983,509.973083 607.753479,518.612183 
	C610.548706,520.201416 613.259460,521.939270 616.388123,523.703247 
	C629.862183,531.408569 642.957397,539.018982 656.052612,546.629395 
	C660.526428,548.943237 665.000244,551.257080 669.720947,553.837402 
	C668.463196,554.322632 666.793640,555.080994 665.478577,554.679260 
	C645.783752,548.662170 626.253479,542.067993 606.420715,536.559143 
	C598.053650,534.235168 589.039551,534.327698 580.380005,532.943542 
	C572.884766,531.745422 565.529907,529.601685 558.016541,528.597595 
	C539.985413,526.187927 521.978882,526.419128 504.037292,529.927795 
	C497.945770,531.119019 491.700043,531.521606 485.219727,532.032837 
z"/>
<path fill="#E36E05" stroke="#E36E05" stroke-width="1.2" stroke-linejoin="round" 
	d="
M657.607910,489.002625 
	C667.430237,493.295044 676.853149,497.579285 686.639282,501.935425 
	C692.215210,505.611328 697.320984,509.383728 702.665955,512.779663 
	C710.568542,517.800537 718.640991,522.553955 726.819702,527.709473 
	C726.998230,527.997559 726.989990,528.490479 726.982910,528.736694 
	C723.583557,529.948059 720.191284,530.913208 716.329041,531.578918 
	C713.825806,529.647766 711.980530,527.672546 709.728638,526.440430 
	C695.873413,518.859680 681.926270,511.446655 668.009766,503.977844 
	C662.992981,499.974731 657.972290,495.976379 652.961670,491.965546 
	C651.468140,490.769989 650.002686,489.539246 649.009644,487.540985 
	C651.742615,488.025482 654.475586,488.509949 657.607910,489.002625 
z"/>
<path fill="#EE8906" stroke="#EE8906" stroke-width="1.2" stroke-linejoin="round" 
	d="
M656.223694,546.359497 
	C642.957397,539.018982 629.862183,531.408569 616.571106,523.478882 
	C619.111938,519.714844 621.949646,516.343872 624.546936,512.796875 
	C626.058167,510.733154 627.184021,508.387177 628.814819,506.033997 
	C641.608276,513.098511 654.070190,520.297119 666.765381,527.737671 
	C663.464050,534.016235 659.929443,540.052917 656.223694,546.359497 
z"/>
<path fill="#CE6204" stroke="#CE6204" stroke-width="1.2" stroke-linejoin="round" 
	d="
M667.655518,503.913818 
	C681.926270,511.446655 695.873413,518.859680 709.728638,526.440430 
	C711.980530,527.672546 713.825806,529.647766 715.952087,531.604675 
	C715.798950,532.155151 715.552795,532.380432 715.154724,532.804077 
	C712.936157,533.352173 710.869568,533.701904 708.094971,533.893677 
	C685.059021,521.356750 662.739319,508.962921 640.398438,496.607422 
	C633.310608,492.687592 626.166443,488.869904 618.946899,484.711456 
	C618.213379,483.943848 617.581055,483.470245 616.633301,482.995270 
	C615.898132,482.996338 615.478333,482.998810 615.058594,483.001282 
	C615.044067,482.252106 615.029602,481.502960 615.010010,480.379333 
	C615.184387,480.001129 615.363953,479.997406 615.813477,479.980774 
	C623.736023,483.481964 631.406372,486.957947 639.036682,490.519806 
	C648.475525,494.925873 657.881226,499.403198 667.655518,503.913818 
z"/>
<path fill="#B66003" stroke="#B66003" stroke-width="1.2" stroke-linejoin="round" 
	d="
M619.048035,485.005463 
	C626.166443,488.869904 633.310608,492.687592 640.398438,496.607422 
	C662.739319,508.962921 685.059021,521.356750 707.695435,533.906860 
	C704.045654,536.643555 700.414612,536.715210 696.075195,534.170715 
	C681.187439,525.441162 666.111206,517.026184 650.989319,508.704834 
	C638.794373,501.994110 626.421265,495.607452 614.151917,489.030975 
	C612.854858,488.335663 611.723877,487.330292 610.265564,486.242310 
	C607.394226,483.567200 604.773132,481.118591 602.070801,478.338409 
	C606.093933,479.656250 610.198425,481.305664 614.680786,482.978149 
	C615.478333,482.998810 615.898132,482.996338 616.737793,483.287445 
	C617.787842,484.055817 618.417908,484.530640 619.048035,485.005463 
z"/>
<path fill="#A76C05" stroke="#A76C05" stroke-width="1.2" stroke-linejoin="round" 
	d="
M578.832458,475.772308 
	C578.684326,475.836304 578.407043,475.658966 577.998901,475.239380 
	C578.145020,475.177307 578.423462,475.355255 578.832458,475.772308 
z"/>
<path fill="#CE6204" stroke="#CE6204" stroke-width="1.2" stroke-linejoin="round" 
	d="
M511.922302,347.333557 
	C514.507263,346.249176 517.104919,345.718567 519.503418,344.713074 
	C527.902344,341.191956 536.021423,336.866119 544.635864,334.026367 
	C559.646118,329.078339 573.763550,332.719910 587.075134,340.412628 
	C594.818298,344.887390 602.548767,349.384247 610.631531,353.937012 
	C621.805420,361.527222 632.632629,369.051544 643.717957,376.789368 
	C648.830627,381.909912 653.693420,386.808929 658.533875,391.729919 
	C659.670776,392.885742 660.732300,394.115723 661.554138,395.574219 
	C657.836060,394.554779 654.392395,393.272705 650.948730,391.990631 
	C636.458923,383.652374 622.175720,374.924530 607.416016,367.095123 
	C594.870239,360.440186 581.803223,354.759460 568.884033,348.828094 
	C567.397766,348.145752 565.379883,348.621307 563.302124,348.773193 
	C554.496643,346.332489 546.841858,349.458099 539.430359,352.864655 
	C527.793274,358.213379 516.450684,364.203644 504.804443,369.531067 
	C499.380066,372.012390 493.398804,373.257904 487.911011,375.622894 
	C477.096924,380.283112 466.105164,384.702789 455.805756,390.350586 
	C432.610291,403.070190 409.786224,416.467560 386.833466,429.628235 
	C385.258026,430.531494 383.868195,431.758484 382.096893,433.058411 
	C380.462402,432.827759 379.123077,432.373657 377.439697,431.828125 
	C376.210114,430.974396 375.324554,430.212097 374.250427,429.223663 
	C385.718811,421.992615 397.402283,415.031403 409.024750,407.969788 
	C419.526764,401.588959 429.970886,395.112579 440.405365,388.621704 
	C441.042511,388.225342 441.369995,387.331207 441.913757,386.330688 
	C444.160889,385.244751 446.482361,384.772461 448.487854,383.705933 
	C466.810669,373.961456 485.119324,364.188141 503.323059,354.224030 
	C506.428680,352.524078 509.016571,349.878326 511.922302,347.333557 
z"/>
<path fill="#EE7205" stroke="#EE7205" stroke-width="1.2" stroke-linejoin="round" 
	d="
M677.250305,449.984436 
	C677.231934,449.736389 677.480774,449.681885 677.859619,449.910950 
	C677.958496,450.010803 677.486328,449.994293 677.250305,449.984436 
z"/>
<path fill="#B67704" stroke="#B67704" stroke-width="1.2" stroke-linejoin="round" 
	d="
M651.034241,392.326569 
	C654.392395,393.272705 657.836060,394.554779 661.631714,395.906036 
	C672.007629,402.158691 682.178101,408.120392 692.001648,414.607422 
	C698.061707,418.609222 703.930298,423.043671 709.279663,427.944489 
	C716.609680,434.659851 715.659546,440.400879 707.138184,445.353424 
	C706.740234,445.584686 706.506042,446.097595 706.075256,446.817749 
	C698.546204,443.202301 691.137390,439.248413 683.436157,435.125427 
	C676.321411,430.754608 669.491272,426.565552 662.684021,422.339569 
	C661.449219,421.572968 660.308472,420.654846 658.963867,419.515991 
	C660.345520,419.022095 661.897766,418.604919 663.426758,418.677246 
	C664.886047,418.746307 666.351318,419.708313 667.760315,419.597076 
	C670.359497,419.391968 672.919373,418.688477 675.495605,418.192627 
	C674.199341,416.048859 673.274170,413.526398 671.541138,411.828461 
	C664.874268,405.296631 657.948792,399.028778 651.034241,392.326569 
z"/>
<path fill="#B67704" stroke="#B67704" stroke-width="1.2" stroke-linejoin="round" 
	d="
M618.946899,484.711456 
	C618.417908,484.530640 617.787842,484.055817 617.053223,483.288818 
	C617.581055,483.470245 618.213379,483.943848 618.946899,484.711456 
z"/>
</svg>